<?xml version="1.0" encoding="UTF-8"?>
<svg id="Layer_2" data-name="Layer 2" xmlns="http://www.w3.org/2000/svg" viewBox="0 0 107.7 99.8">
  <defs>
    <style>
      .cls-1 {
        fill: #c12127;
        stroke-width: 0px;
      }
    </style>
  </defs>
  <g id="Layer_1-2" data-name="Layer 1">
    <g id="Heart">
      <path class="cls-1" d="M107.7,26.93c0,1.4-.12,2.84-.34,4.29-4.59,29.59-53.51,68.58-53.51,68.58,0,0-48.92-38.99-53.51-68.58-.22-1.45-.34-2.89-.34-4.29C0,12.06,12.06,0,26.93,0s25.83,11,26.84,24.94c.06.66.08,1.32.08,1.99,0-.67.02-1.33.08-1.99,1.01-13.94,12.64-24.94,26.84-24.94s26.93,12.06,26.93,26.93Z"/>
      <path class="cls-1" d="M53.85,24.94v1.99c0-.67-.02-1.33-.08-1.99h.08Z"/>
    </g>
  </g>
</svg>