<?xml version="1.0" encoding="utf-8"?>
<!-- Generator: Adobe Illustrator 28.1.0, SVG Export Plug-In . SVG Version: 6.00 Build 0)  -->
<svg version="1.1" id="Layer_1" xmlns="http://www.w3.org/2000/svg" xmlns:xlink="http://www.w3.org/1999/xlink" x="0px" y="0px"
	 viewBox="0 0 300 360.54" style="enable-background:new 0 0 300 360.54;" xml:space="preserve">
<style type="text/css">
	.st0{fill:#EDD1E0;}
	.st1{fill:#EAACC3;}
	.st2{fill:#C12127;}
	.st3{fill:#E27FA8;}
	.st4{fill:#F2E2E9;}
</style>
<g id="Open-Envelope">
	<path class="st3" d="M292.83,147.96L150,250.54L7.17,147.96l284.81-0.83C292.27,147.4,292.56,147.67,292.83,147.96z"/>
	<path class="st1" d="M291.98,147.08L7.17,147.96L137.33,5.68c6.92-7.58,18.42-7.57,25.34,0L291.98,147.08z"/>
</g>
<g id="Card">
	<rect x="12.35" y="148.42" class="st4" width="274.46" height="204.24"/>
	<g>
		<path class="st2" d="M203,232.66c0,1.4-0.12,2.84-0.34,4.29c-4.59,29.59-53.51,68.58-53.51,68.58s-48.92-38.99-53.51-68.58
			c-0.22-1.45-0.34-2.89-0.34-4.29c0-14.87,12.06-26.93,26.93-26.93c14.2,0,25.83,11,26.84,24.94c0.06,0.66,0.08,1.32,0.08,1.99
			c0-0.67,0.02-1.33,0.08-1.99c1.01-13.94,12.64-24.94,26.84-24.94C190.94,205.73,203,217.79,203,232.66z"/>
		<path class="st2" d="M149.15,230.67v1.99c0-0.67-0.02-1.33-0.08-1.99H149.15z"/>
	</g>
</g>
<g id="Front-Envelope">
	<path class="st0" d="M7.17,147.96L150,250.54L7.17,353.13C2.73,348.64,0,342.47,0,335.66V165.42C0,158.61,2.73,152.45,7.17,147.96z
		"/>
	<path class="st0" d="M300,165.42v170.24c0,6.81-2.73,12.98-7.17,17.47L150,250.54l142.83-102.58
		C297.27,152.45,300,158.61,300,165.42z"/>
	<path class="st1" d="M292.83,353.13c-0.28,0.29-0.57,0.56-0.86,0.83c-4.43,4.09-10.35,6.58-16.85,6.58H24.88
		c-6.5,0-12.42-2.49-16.85-6.58c-0.29-0.27-0.58-0.54-0.86-0.83L150,250.54L292.83,353.13z"/>
</g>
</svg>
